<svg viewBox="0 0 187 148" fill="none" xmlns="http://www.w3.org/2000/svg">
    <path fill-rule="evenodd" clip-rule="evenodd"
        d="M62 6C63.6569 6 65 4.65686 65 3C65 1.34314 63.6569 0 62 0C60.3431 0 59 1.34314 59 3C59 4.65686 60.3431 6 62 6ZM41.5 10C36.2533 10 32 14.2533 32 19.5C32 24.7467 36.2533 29 41.5 29H50C46.6863 29 44 31.6863 44 35C44 38.3137 46.6863 41 50 41H179C182.314 41 185 38.3137 185 35C185 31.6863 182.314 29 179 29H163.5C168.747 29 173 24.7467 173 19.5C173 14.2533 168.747 10 163.5 10H41.5ZM23 64.5C23 57.0442 29.0442 51 36.5 51H156.5C163.956 51 170 57.0442 170 64.5C170 71.9558 163.956 78 156.5 78H139C143.418 78 147 81.5817 147 86C147 90.4183 143.418 94 139 94H8C3.58173 94 0 90.4183 0 86C0 81.5817 3.58173 78 8 78H36.5C29.0442 78 23 71.9558 23 64.5ZM47 115.5C47 110.806 50.8056 107 55.5 107H178.5C183.194 107 187 110.806 187 115.5C187 120.194 183.194 124 178.5 124H147.5C151.09 124 154 126.91 154 130.5C154 134.09 151.09 137 147.5 137H20.5C16.9102 137 14 134.09 14 130.5C14 126.91 16.9102 124 20.5 124H55.5C50.8056 124 47 120.194 47 115.5ZM167.06 141.2C167.153 141.293 167.273 141.34 167.42 141.34H168.8C168.947 141.34 169.067 141.293 169.16 141.2C169.253 141.107 169.3 140.987 169.3 140.84V137.06H173C173.133 137.06 173.247 137.013 173.34 136.92C173.433 136.827 173.48 136.713 173.48 136.58V135.32C173.48 135.173 173.433 135.053 173.34 134.96C173.247 134.867 173.133 134.82 173 134.82H169.3V131.16C169.3 131.013 169.253 130.893 169.16 130.8C169.067 130.707 168.947 130.66 168.8 130.66H167.42C167.273 130.66 167.153 130.707 167.06 130.8C166.967 130.893 166.92 131.013 166.92 131.16V134.82H163.22C163.073 134.82 162.953 134.867 162.86 134.96C162.767 135.053 162.72 135.173 162.72 135.32V136.58C162.72 136.713 162.767 136.827 162.86 136.92C162.953 137.013 163.073 137.06 163.22 137.06H166.92V140.84C166.92 140.987 166.967 141.107 167.06 141.2ZM176.504 96.2081C176.328 96.2081 176.184 96.1521 176.072 96.0401C175.96 95.9281 175.904 95.7841 175.904 95.6081V91.0721H171.464C171.288 91.0721 171.144 91.0161 171.032 90.9041C170.92 90.7921 170.864 90.6561 170.864 90.4961V88.9841C170.864 88.8081 170.92 88.6641 171.032 88.5521C171.144 88.4401 171.288 88.3841 171.464 88.3841H175.904V83.9921C175.904 83.8161 175.96 83.6721 176.072 83.5601C176.184 83.4481 176.328 83.3921 176.504 83.3921H178.16C178.336 83.3921 178.48 83.4481 178.592 83.5601C178.704 83.6721 178.76 83.8161 178.76 83.9921V88.3841H183.2C183.36 88.3841 183.496 88.4401 183.608 88.5521C183.72 88.6641 183.776 88.8081 183.776 88.9841V90.4961C183.776 90.6561 183.72 90.7921 183.608 90.9041C183.496 91.0161 183.36 91.0721 183.2 91.0721H178.76V95.6081C178.76 95.7841 178.704 95.9281 178.592 96.0401C178.48 96.1521 178.336 96.2081 178.16 96.2081H176.504ZM31.0479 111.36C31.1226 111.435 31.2186 111.472 31.3359 111.472H32.4399C32.5573 111.472 32.6533 111.435 32.7279 111.36C32.8026 111.285 32.8399 111.189 32.8399 111.072V108.048H35.7999C35.9066 108.048 35.9973 108.011 36.0719 107.936C36.1466 107.861 36.1839 107.771 36.1839 107.664V106.656C36.1839 106.539 36.1466 106.443 36.0719 106.368C35.9973 106.293 35.9066 106.256 35.7999 106.256H32.8399V103.328C32.8399 103.211 32.8026 103.115 32.7279 103.04C32.6533 102.965 32.5573 102.928 32.4399 102.928H31.3359C31.2186 102.928 31.1226 102.965 31.0479 103.04C30.9733 103.115 30.9359 103.211 30.9359 103.328V106.256H27.9759C27.8586 106.256 27.7626 106.293 27.6879 106.368C27.6133 106.443 27.5759 106.539 27.5759 106.656V107.664C27.5759 107.771 27.6133 107.861 27.6879 107.936C27.7626 108.011 27.8586 108.048 27.9759 108.048H30.9359V111.072C30.9359 111.189 30.9733 111.285 31.0479 111.36ZM20.504 43.2081C20.328 43.2081 20.184 43.1521 20.072 43.0401C19.96 42.9281 19.904 42.7841 19.904 42.6081V38.0721H15.464C15.288 38.0721 15.144 38.0161 15.032 37.9041C14.92 37.7921 14.864 37.6561 14.864 37.4961V35.9841C14.864 35.8081 14.92 35.6641 15.032 35.5521C15.144 35.4401 15.288 35.3841 15.464 35.3841H19.904V30.9921C19.904 30.8161 19.96 30.6721 20.072 30.5601C20.184 30.4481 20.328 30.3921 20.504 30.3921H22.16C22.336 30.3921 22.48 30.4481 22.592 30.5601C22.704 30.6721 22.76 30.8161 22.76 30.9921V35.3841H27.2C27.36 35.3841 27.496 35.4401 27.608 35.5521C27.72 35.6641 27.776 35.8081 27.776 35.9841V37.4961C27.776 37.6561 27.72 37.7921 27.608 37.9041C27.496 38.0161 27.36 38.0721 27.2 38.0721H22.76V42.6081C22.76 42.7841 22.704 42.9281 22.592 43.0401C22.48 43.1521 22.336 43.2081 22.16 43.2081H20.504ZM184 60C185.657 60 187 58.6569 187 57C187 55.3431 185.657 54 184 54C182.343 54 181 55.3431 181 57C181 58.6569 182.343 60 184 60ZM183 17C183 18.1046 182.105 19 181 19C179.895 19 179 18.1046 179 17C179 15.8954 179.895 15 181 15C182.105 15 183 15.8954 183 17ZM36.5 44C37.3284 44 38 43.3284 38 42.5C38 41.6716 37.3284 41 36.5 41C35.6716 41 35 41.6716 35 42.5C35 43.3284 35.6716 44 36.5 44ZM12 66C12 67.6569 10.6569 69 9 69C7.34314 69 6 67.6569 6 66C6 64.3431 7.34314 63 9 63C10.6569 63 12 64.3431 12 66ZM6 116C7.65686 116 9 114.657 9 113C9 111.343 7.65686 110 6 110C4.34314 110 3 111.343 3 113C3 114.657 4.34314 116 6 116ZM81 146.5C81 147.328 80.3284 148 79.5 148C78.6716 148 78 147.328 78 146.5C78 145.672 78.6716 145 79.5 145C80.3284 145 81 145.672 81 146.5Z"
        fill="#F1F5F9" />
    <path fill-rule="evenodd" clip-rule="evenodd"
        d="M133.04 36.2001C131.827 36.2001 130.78 36 129.9 35.6C129.02 35.2001 128.333 34.6 127.84 33.8C127.347 32.9867 127.08 31.9667 127.04 30.74C127.027 30.1667 127.02 29.6 127.02 29.04C127.02 28.4667 127.027 27.8867 127.04 27.3C127.08 26.1 127.347 25.0934 127.84 24.28C128.347 23.4534 129.04 22.8334 129.92 22.42C130.813 22.0067 131.853 21.8 133.04 21.8C134.213 21.8 135.24 22.0067 136.12 22.42C137.013 22.8334 137.713 23.4534 138.22 24.28C138.727 25.0934 138.993 26.1 139.02 27.3C139.047 27.8867 139.06 28.4667 139.06 29.04C139.06 29.6 139.047 30.1667 139.02 30.74C138.98 31.9667 138.713 32.9867 138.22 33.8C137.727 34.6 137.04 35.2001 136.16 35.6C135.28 36 134.24 36.2001 133.04 36.2001ZM133.04 33.6201C133.813 33.6201 134.447 33.3867 134.94 32.92C135.447 32.4401 135.713 31.68 135.74 30.64C135.767 30.0534 135.78 29.5067 135.78 29C135.78 28.48 135.767 27.9334 135.74 27.36C135.727 26.6667 135.6 26.1 135.36 25.66C135.12 25.22 134.8 24.9 134.4 24.7C134.013 24.4867 133.56 24.38 133.04 24.38C132.52 24.38 132.06 24.4867 131.66 24.7C131.26 24.9 130.94 25.22 130.7 25.66C130.473 26.1 130.347 26.6667 130.32 27.36C130.307 27.9334 130.3 28.48 130.3 29C130.3 29.5067 130.307 30.0534 130.32 30.64C130.36 31.68 130.627 32.4401 131.12 32.92C131.613 33.3867 132.253 33.6201 133.04 33.6201ZM146.083 36.2001C144.976 36.2001 144.049 36.02 143.303 35.66C142.556 35.2867 141.983 34.76 141.583 34.08C141.196 33.4 140.983 32.6067 140.943 31.7C140.929 31.4334 140.923 31.1334 140.923 30.8C140.923 30.4534 140.929 30.1534 140.943 29.9C140.983 28.98 141.209 28.1867 141.623 27.52C142.036 26.84 142.616 26.32 143.363 25.96C144.109 25.5867 145.016 25.4 146.083 25.4C147.136 25.4 148.036 25.5867 148.783 25.96C149.529 26.32 150.109 26.84 150.523 27.52C150.936 28.1867 151.163 28.98 151.203 29.9C151.229 30.1534 151.243 30.4534 151.243 30.8C151.243 31.1334 151.229 31.4334 151.203 31.7C151.163 32.6067 150.943 33.4 150.543 34.08C150.156 34.76 149.589 35.2867 148.843 35.66C148.096 36.02 147.176 36.2001 146.083 36.2001ZM146.083 34C146.736 34 147.229 33.8 147.563 33.4C147.896 32.9867 148.076 32.3867 148.103 31.6C148.116 31.4 148.123 31.1334 148.123 30.8C148.123 30.4667 148.116 30.2 148.103 30C148.076 29.2267 147.896 28.6334 147.563 28.22C147.229 27.8067 146.736 27.6 146.083 27.6C145.429 27.6 144.929 27.8067 144.583 28.22C144.249 28.6334 144.069 29.2267 144.043 30C144.029 30.2 144.023 30.4667 144.023 30.8C144.023 31.1334 144.029 31.4 144.043 31.6C144.069 32.3867 144.249 32.9867 144.583 33.4C144.929 33.8 145.429 34 146.083 34ZM153.474 39.66C153.568 39.7534 153.688 39.8001 153.834 39.8001H155.894C156.028 39.8001 156.141 39.7534 156.234 39.66C156.328 39.5667 156.374 39.4467 156.374 39.3V34.82C156.694 35.2467 157.101 35.5867 157.594 35.84C158.101 36.08 158.694 36.2001 159.374 36.2001C160.068 36.2001 160.668 36.0867 161.174 35.8601C161.694 35.6334 162.134 35.3134 162.494 34.9C162.854 34.4867 163.128 33.9934 163.314 33.42C163.514 32.8467 163.621 32.22 163.634 31.54C163.648 31.2734 163.654 31.0267 163.654 30.8C163.654 30.5734 163.648 30.3334 163.634 30.08C163.608 29.36 163.494 28.7134 163.294 28.14C163.108 27.5667 162.834 27.08 162.474 26.68C162.128 26.2667 161.694 25.9534 161.174 25.74C160.668 25.5134 160.068 25.4 159.374 25.4C158.614 25.4 157.981 25.54 157.474 25.82C156.968 26.0867 156.554 26.4334 156.234 26.86V26.1C156.234 25.9534 156.188 25.8334 156.094 25.74C156.001 25.6467 155.881 25.6 155.734 25.6H153.834C153.688 25.6 153.568 25.6467 153.474 25.74C153.381 25.8334 153.334 25.9534 153.334 26.1V39.3C153.334 39.4467 153.381 39.5667 153.474 39.66ZM159.674 33.48C159.381 33.6934 158.981 33.8 158.474 33.8C157.994 33.8 157.601 33.6934 157.294 33.48C157.001 33.2667 156.774 33 156.614 32.68C156.468 32.3467 156.388 31.9934 156.374 31.62C156.361 31.3667 156.354 31.1134 156.354 30.86C156.354 30.6067 156.361 30.36 156.374 30.12C156.401 29.72 156.481 29.3467 156.614 29C156.748 28.6534 156.968 28.3667 157.274 28.14C157.581 27.9134 157.981 27.8 158.474 27.8C158.981 27.8 159.381 27.9134 159.674 28.14C159.968 28.3534 160.174 28.64 160.294 29C160.428 29.36 160.508 29.7534 160.534 30.18C160.561 30.5934 160.561 31.0067 160.534 31.42C160.508 31.8467 160.428 32.24 160.294 32.6C160.174 32.96 159.968 33.2534 159.674 33.48ZM169.876 36.2001C169.049 36.2001 168.336 36.1067 167.736 35.92C167.149 35.72 166.669 35.4801 166.296 35.2001C165.936 34.9201 165.662 34.64 165.476 34.3601C165.302 34.0667 165.209 33.8201 165.196 33.6201C165.182 33.4734 165.229 33.3534 165.336 33.26C165.442 33.1667 165.549 33.12 165.656 33.12H167.596C167.636 33.12 167.676 33.1267 167.716 33.14C167.756 33.1534 167.796 33.1867 167.836 33.24C168.009 33.36 168.189 33.5 168.376 33.66C168.562 33.8067 168.776 33.9334 169.016 34.04C169.269 34.1467 169.582 34.2001 169.956 34.2001C170.396 34.2001 170.769 34.1134 171.076 33.9401C171.382 33.7534 171.536 33.4934 171.536 33.16C171.536 32.92 171.462 32.72 171.316 32.56C171.182 32.4 170.922 32.2534 170.536 32.12C170.149 31.9867 169.576 31.84 168.816 31.68C168.096 31.5201 167.482 31.3067 166.976 31.04C166.469 30.7734 166.089 30.44 165.836 30.04C165.582 29.6267 165.456 29.1334 165.456 28.56C165.456 28.04 165.616 27.54 165.936 27.06C166.269 26.58 166.756 26.1867 167.396 25.88C168.036 25.56 168.836 25.4 169.796 25.4C170.529 25.4 171.169 25.4934 171.716 25.68C172.276 25.8534 172.742 26.08 173.116 26.36C173.489 26.6267 173.769 26.9067 173.956 27.2C174.156 27.48 174.262 27.7267 174.276 27.94C174.289 28.0734 174.249 28.1867 174.156 28.28C174.062 28.3734 173.956 28.42 173.836 28.42H172.056C171.989 28.42 171.929 28.4134 171.876 28.4C171.822 28.3734 171.776 28.34 171.736 28.3C171.576 28.1934 171.409 28.0734 171.236 27.94C171.076 27.7934 170.882 27.6667 170.656 27.56C170.429 27.4534 170.136 27.4 169.776 27.4C169.336 27.4 168.996 27.5 168.756 27.7C168.529 27.8867 168.416 28.1267 168.416 28.42C168.416 28.6067 168.476 28.78 168.596 28.94C168.716 29.1 168.962 29.2467 169.336 29.38C169.709 29.5134 170.276 29.6534 171.036 29.8C171.942 29.96 172.662 30.2 173.196 30.52C173.729 30.84 174.109 31.2134 174.336 31.64C174.576 32.0534 174.696 32.5 174.696 32.98C174.696 33.6067 174.509 34.1667 174.136 34.66C173.762 35.14 173.216 35.52 172.496 35.8C171.789 36.0667 170.916 36.2001 169.876 36.2001ZM176.815 31.72C176.909 31.8134 177.029 31.86 177.175 31.86H179.115C179.262 31.86 179.382 31.8134 179.475 31.72C179.569 31.6267 179.615 31.5067 179.615 31.36V22.5C179.615 22.3534 179.569 22.2334 179.475 22.14C179.382 22.0467 179.262 22 179.115 22H177.175C177.029 22 176.909 22.0467 176.815 22.14C176.722 22.2334 176.675 22.3534 176.675 22.5V31.36C176.675 31.5067 176.722 31.6267 176.815 31.72ZM176.715 35.8601C176.809 35.9534 176.922 36 177.055 36H179.215C179.362 36 179.482 35.9534 179.575 35.8601C179.669 35.7667 179.715 35.6467 179.715 35.5V33.3601C179.715 33.2134 179.669 33.0934 179.575 33C179.482 32.9067 179.362 32.86 179.215 32.86H177.055C176.922 32.86 176.809 32.9067 176.715 33C176.622 33.0934 176.575 33.2134 176.575 33.3601V35.5C176.575 35.6467 176.622 35.7667 176.715 35.8601ZM105.177 32.8895H85.875C74.8568 32.8895 68.0302 35.114 63.8722 39.272C59.7141 43.4301 57.4896 50.2567 57.4896 61.2749C57.4896 63.1561 55.9646 64.6812 54.0834 64.6812C52.2022 64.6812 50.6771 63.1561 50.6771 61.2749C50.6771 49.5848 52.9943 40.5156 59.055 34.4549C65.1157 28.3942 74.1849 26.077 85.875 26.077H108.557C108.618 26.0765 108.678 26.0777 108.739 26.0805C109.473 26.1143 110.188 26.3851 110.768 26.8696C110.845 26.9342 110.92 27.0026 110.992 27.0747L147.322 63.4052L147.351 63.4343C147.664 63.7533 147.901 64.1185 148.062 64.5076C148.23 64.9106 148.323 65.3528 148.323 65.8166V88.5249C148.323 100.215 146.006 109.284 139.945 115.345C133.884 121.406 124.815 123.723 113.125 123.723H85.875C74.1849 123.723 65.1157 121.406 59.055 115.345C52.9943 109.284 50.6771 100.215 50.6771 88.5249V79.3508C50.6771 77.4695 52.2022 75.9445 54.0834 75.9445C55.9646 75.9445 57.4896 77.4695 57.4896 79.3508V88.5249C57.4896 99.5431 59.7141 106.37 63.8722 110.528C68.0302 114.686 74.8568 116.91 85.875 116.91H113.125C124.143 116.91 130.97 114.686 135.128 110.528C139.286 106.37 141.51 99.5431 141.51 88.5249V67.2275L111.99 37.7067V47.6499C111.99 54.2737 113.138 57.6057 114.966 59.434C116.794 61.2624 120.126 62.4103 126.75 62.4103C128.631 62.4103 130.156 63.9354 130.156 65.8166C130.156 67.6978 128.631 69.2228 126.75 69.2228C119.749 69.2228 113.997 68.0999 110.149 64.2512C106.3 60.4025 105.177 54.6511 105.177 47.6499V32.8895ZM73.5923 74.5923C74.922 73.2626 77.0779 73.2626 78.4077 74.5923L81.8336 78.0182L85.2595 74.5923C86.5893 73.2625 88.7452 73.2625 90.0749 74.5923C91.4047 75.922 91.4047 78.0779 90.0749 79.4077L86.649 82.8336L90.0749 86.2596C91.4047 87.5893 91.4047 89.7452 90.0749 91.075C88.7452 92.4047 86.5893 92.4047 85.2595 91.075L81.8336 87.649L78.4077 91.0749C77.0779 92.4047 74.922 92.4047 73.5923 91.0749C72.2625 89.7452 72.2625 87.5893 73.5923 86.2595L77.0182 82.8336L73.5923 79.4077C72.2625 78.078 72.2625 75.922 73.5923 74.5923ZM109.26 74.5923C110.589 73.2626 112.745 73.2626 114.075 74.5923L117.501 78.0182L120.927 74.5923C122.257 73.2625 124.413 73.2625 125.742 74.5923C127.072 75.922 127.072 78.0779 125.742 79.4077L122.316 82.8336L125.742 86.2596C127.072 87.5893 127.072 89.7452 125.742 91.075C124.413 92.4047 122.257 92.4047 120.927 91.075L117.501 87.649L114.075 91.0749C112.745 92.4047 110.589 92.4047 109.26 91.0749C107.93 89.7452 107.93 87.5893 109.26 86.2595L112.686 82.8336L109.26 79.4077C107.93 78.078 107.93 75.922 109.26 74.5923ZM88.595 103C88.595 101.119 90.1194 99.595 92 99.595H108.5C110.381 99.595 111.905 101.119 111.905 103C111.905 104.881 110.381 106.405 108.5 106.405H92C90.1194 106.405 88.595 104.881 88.595 103Z"
        fill="#94A3B8" />
</svg>