<svg viewBox="0 0 187 148" fill="none" xmlns="http://www.w3.org/2000/svg">
<path fill-rule="evenodd" clip-rule="evenodd" d="M62 6C63.6569 6 65 4.65686 65 3C65 1.34314 63.6569 0 62 0C60.3431 0 59 1.34314 59 3C59 4.65686 60.3431 6 62 6ZM41.5 10C36.2533 10 32 14.2533 32 19.5C32 24.7467 36.2533 29 41.5 29H50C46.6863 29 44 31.6863 44 35C44 38.3137 46.6863 41 50 41H179C182.314 41 185 38.3137 185 35C185 31.6863 182.314 29 179 29H163.5C168.747 29 173 24.7467 173 19.5C173 14.2533 168.747 10 163.5 10H41.5ZM23 64.5C23 57.0442 29.0442 51 36.5 51H156.5C163.956 51 170 57.0442 170 64.5C170 71.9558 163.956 78 156.5 78H139C143.418 78 147 81.5817 147 86C147 90.4183 143.418 94 139 94H8C3.58173 94 0 90.4183 0 86C0 81.5817 3.58173 78 8 78H36.5C29.0442 78 23 71.9558 23 64.5ZM47 115.5C47 110.806 50.8056 107 55.5 107H178.5C183.194 107 187 110.806 187 115.5C187 120.194 183.194 124 178.5 124H147.5C151.09 124 154 126.91 154 130.5C154 134.09 151.09 137 147.5 137H20.5C16.9102 137 14 134.09 14 130.5C14 126.91 16.9102 124 20.5 124H55.5C50.8056 124 47 120.194 47 115.5ZM167.06 141.2C167.153 141.293 167.273 141.34 167.42 141.34H168.8C168.947 141.34 169.067 141.293 169.16 141.2C169.253 141.107 169.3 140.987 169.3 140.84V137.06H173C173.133 137.06 173.247 137.013 173.34 136.92C173.433 136.827 173.48 136.713 173.48 136.58V135.32C173.48 135.173 173.433 135.053 173.34 134.96C173.247 134.867 173.133 134.82 173 134.82H169.3V131.16C169.3 131.013 169.253 130.893 169.16 130.8C169.067 130.707 168.947 130.66 168.8 130.66H167.42C167.273 130.66 167.153 130.707 167.06 130.8C166.967 130.893 166.92 131.013 166.92 131.16V134.82H163.22C163.073 134.82 162.953 134.867 162.86 134.96C162.767 135.053 162.72 135.173 162.72 135.32V136.58C162.72 136.713 162.767 136.827 162.86 136.92C162.953 137.013 163.073 137.06 163.22 137.06H166.92V140.84C166.92 140.987 166.967 141.107 167.06 141.2ZM176.504 96.2081C176.328 96.2081 176.184 96.1521 176.072 96.0401C175.96 95.9281 175.904 95.7841 175.904 95.6081V91.0721H171.464C171.288 91.0721 171.144 91.0161 171.032 90.9041C170.92 90.7921 170.864 90.6561 170.864 90.4961V88.9841C170.864 88.8081 170.92 88.6641 171.032 88.5521C171.144 88.4401 171.288 88.3841 171.464 88.3841H175.904V83.9921C175.904 83.8161 175.96 83.6721 176.072 83.5601C176.184 83.4481 176.328 83.3921 176.504 83.3921H178.16C178.336 83.3921 178.48 83.4481 178.592 83.5601C178.704 83.6721 178.76 83.8161 178.76 83.9921V88.3841H183.2C183.36 88.3841 183.496 88.4401 183.608 88.5521C183.72 88.6641 183.776 88.8081 183.776 88.9841V90.4961C183.776 90.6561 183.72 90.7921 183.608 90.9041C183.496 91.0161 183.36 91.0721 183.2 91.0721H178.76V95.6081C178.76 95.7841 178.704 95.9281 178.592 96.0401C178.48 96.1521 178.336 96.2081 178.16 96.2081H176.504ZM31.0479 111.36C31.1226 111.435 31.2186 111.472 31.3359 111.472H32.4399C32.5573 111.472 32.6533 111.435 32.7279 111.36C32.8026 111.285 32.8399 111.189 32.8399 111.072V108.048H35.7999C35.9066 108.048 35.9973 108.011 36.0719 107.936C36.1466 107.861 36.1839 107.771 36.1839 107.664V106.656C36.1839 106.539 36.1466 106.443 36.0719 106.368C35.9973 106.293 35.9066 106.256 35.7999 106.256H32.8399V103.328C32.8399 103.211 32.8026 103.115 32.7279 103.04C32.6533 102.965 32.5573 102.928 32.4399 102.928H31.3359C31.2186 102.928 31.1226 102.965 31.0479 103.04C30.9733 103.115 30.9359 103.211 30.9359 103.328V106.256H27.9759C27.8586 106.256 27.7626 106.293 27.6879 106.368C27.6133 106.443 27.5759 106.539 27.5759 106.656V107.664C27.5759 107.771 27.6133 107.861 27.6879 107.936C27.7626 108.011 27.8586 108.048 27.9759 108.048H30.9359V111.072C30.9359 111.189 30.9733 111.285 31.0479 111.36ZM20.504 43.2081C20.328 43.2081 20.184 43.1521 20.072 43.0401C19.96 42.9281 19.904 42.7841 19.904 42.6081V38.0721H15.464C15.288 38.0721 15.144 38.0161 15.032 37.9041C14.92 37.7921 14.864 37.6561 14.864 37.4961V35.9841C14.864 35.8081 14.92 35.6641 15.032 35.5521C15.144 35.4401 15.288 35.3841 15.464 35.3841H19.904V30.9921C19.904 30.8161 19.96 30.6721 20.072 30.5601C20.184 30.4481 20.328 30.3921 20.504 30.3921H22.16C22.336 30.3921 22.48 30.4481 22.592 30.5601C22.704 30.6721 22.76 30.8161 22.76 30.9921V35.3841H27.2C27.36 35.3841 27.496 35.4401 27.608 35.5521C27.72 35.6641 27.776 35.8081 27.776 35.9841V37.4961C27.776 37.6561 27.72 37.7921 27.608 37.9041C27.496 38.0161 27.36 38.0721 27.2 38.0721H22.76V42.6081C22.76 42.7841 22.704 42.9281 22.592 43.0401C22.48 43.1521 22.336 43.2081 22.16 43.2081H20.504ZM184 60C185.657 60 187 58.6569 187 57C187 55.3431 185.657 54 184 54C182.343 54 181 55.3431 181 57C181 58.6569 182.343 60 184 60ZM183 17C183 18.1046 182.105 19 181 19C179.895 19 179 18.1046 179 17C179 15.8954 179.895 15 181 15C182.105 15 183 15.8954 183 17ZM36.5 44C37.3284 44 38 43.3284 38 42.5C38 41.6716 37.3284 41 36.5 41C35.6716 41 35 41.6716 35 42.5C35 43.3284 35.6716 44 36.5 44ZM12 66C12 67.6569 10.6569 69 9 69C7.34314 69 6 67.6569 6 66C6 64.3431 7.34314 63 9 63C10.6569 63 12 64.3431 12 66ZM6 116C7.65686 116 9 114.657 9 113C9 111.343 7.65686 110 6 110C4.34314 110 3 111.343 3 113C3 114.657 4.34314 116 6 116ZM81 146.5C81 147.328 80.3284 148 79.5 148C78.6716 148 78 147.328 78 146.5C78 145.672 78.6716 145 79.5 145C80.3284 145 81 145.672 81 146.5Z" fill="#F1F5F9"/>
<path fill-rule="evenodd" clip-rule="evenodd" d="M147.26 26.4C147.127 26.4 147.013 26.3533 146.92 26.26C146.827 26.1667 146.78 26.0467 146.78 25.9V24.56C146.78 24.4267 146.807 24.3067 146.86 24.2C146.927 24.0933 147 23.9933 147.08 23.9L151.98 18.32H147.44C147.293 18.32 147.173 18.2733 147.08 18.18C146.987 18.0867 146.94 17.9733 146.94 17.84V16.5C146.94 16.3533 146.987 16.2333 147.08 16.14C147.173 16.0467 147.293 16 147.44 16H155.24C155.387 16 155.507 16.0467 155.6 16.14C155.693 16.2333 155.74 16.3533 155.74 16.5V17.94C155.74 18.06 155.713 18.1667 155.66 18.26C155.607 18.3533 155.54 18.4467 155.46 18.54L150.66 24.08H155.66C155.793 24.08 155.907 24.1267 156 24.22C156.093 24.3133 156.14 24.4267 156.14 24.56V25.9C156.14 26.0467 156.093 26.1667 156 26.26C155.907 26.3533 155.793 26.4 155.66 26.4H147.26ZM130.08 38.2319C129.968 38.1039 129.912 37.9599 129.912 37.7999V35.7839C129.912 35.5599 129.96 35.3759 130.056 35.2319C130.152 35.0879 130.224 34.9839 130.272 34.9199L138.336 24.7919H130.728C130.568 24.7919 130.432 24.7359 130.32 24.6239C130.208 24.5119 130.152 24.3759 130.152 24.2159V22.1999C130.152 22.0239 130.208 21.8799 130.32 21.7679C130.432 21.6559 130.568 21.5999 130.728 21.5999H142.512C142.688 21.5999 142.832 21.6559 142.944 21.7679C143.072 21.8799 143.136 22.0239 143.136 22.1999V24.1919C143.136 24.3679 143.104 24.5279 143.04 24.6719C142.976 24.7999 142.904 24.9119 142.824 25.0079L134.976 35.1839H142.8C142.976 35.1839 143.12 35.2399 143.232 35.3519C143.344 35.4639 143.4 35.6079 143.4 35.7839V37.7999C143.4 37.9759 143.344 38.1199 143.232 38.2319C143.12 38.3439 142.976 38.3999 142.8 38.3999H130.512C130.336 38.3999 130.192 38.3439 130.08 38.2319ZM105.177 32.8895H85.875C74.8568 32.8895 68.0302 35.114 63.8722 39.272C59.7141 43.4301 57.4896 50.2567 57.4896 61.2749C57.4896 63.1561 55.9646 64.6812 54.0834 64.6812C52.2022 64.6812 50.6771 63.1561 50.6771 61.2749C50.6771 49.5848 52.9943 40.5156 59.055 34.4549C65.1157 28.3942 74.1849 26.077 85.875 26.077H108.557C108.618 26.0765 108.678 26.0777 108.739 26.0805C109.473 26.1143 110.188 26.3851 110.768 26.8696C110.845 26.9342 110.92 27.0026 110.992 27.0747L147.322 63.4052L147.351 63.4343C147.664 63.7533 147.901 64.1185 148.062 64.5076C148.23 64.9106 148.323 65.3528 148.323 65.8166V88.5249C148.323 100.215 146.006 109.284 139.945 115.345C133.884 121.406 124.815 123.723 113.125 123.723H85.875C74.1849 123.723 65.1157 121.406 59.055 115.345C52.9943 109.284 50.6771 100.215 50.6771 88.5249V79.3508C50.6771 77.4695 52.2022 75.9445 54.0834 75.9445C55.9646 75.9445 57.4896 77.4695 57.4896 79.3508V88.5249C57.4896 99.5431 59.7141 106.37 63.8722 110.528C68.0302 114.686 74.8568 116.91 85.875 116.91H113.125C124.143 116.91 130.97 114.686 135.128 110.528C139.286 106.37 141.51 99.5431 141.51 88.5249V67.2275L111.99 37.7067V47.6499C111.99 54.2737 113.138 57.6057 114.966 59.434C116.794 61.2624 120.126 62.4103 126.75 62.4103C128.631 62.4103 130.156 63.9354 130.156 65.8166C130.156 67.6978 128.631 69.2228 126.75 69.2228C119.749 69.2228 113.997 68.0999 110.149 64.2512C106.3 60.4025 105.177 54.6511 105.177 47.6499V32.8895ZM73 75.9949C74.8805 75.9949 76.405 77.5193 76.405 79.3999C76.405 80.1346 76.5497 80.8622 76.8309 81.541C77.112 82.2198 77.5242 82.8366 78.0437 83.3561C78.5633 83.8757 79.18 84.2878 79.8589 84.569C80.5377 84.8502 81.2652 84.9949 82 84.9949C82.7347 84.9949 83.4623 84.8502 84.1411 84.569C84.8199 84.2878 85.4367 83.8757 85.9562 83.3561C86.4758 82.8366 86.8879 82.2198 87.1691 81.541C87.4503 80.8622 87.595 80.1346 87.595 79.3999C87.595 77.5193 89.1194 75.9949 91 75.9949C92.8805 75.9949 94.405 77.5193 94.405 79.3999C94.405 81.0289 94.0841 82.642 93.4607 84.1471C92.8373 85.6521 91.9235 87.0196 90.7716 88.1715C89.6197 89.3234 88.2522 90.2372 86.7472 90.8606C85.2421 91.484 83.629 91.8049 82 91.8049C80.3709 91.8049 78.7578 91.484 77.2528 90.8606C75.7477 90.2372 74.3802 89.3234 73.2283 88.1715C72.0764 87.0196 71.1627 85.6521 70.5392 84.1471C69.9158 82.642 69.595 81.0289 69.595 79.3999C69.595 77.5193 71.1194 75.9949 73 75.9949ZM111.405 79.3999C111.405 77.5193 109.881 75.9949 108 75.9949C106.119 75.9949 104.595 77.5193 104.595 79.3999C104.595 81.0289 104.916 82.642 105.539 84.1471C106.163 85.6521 107.076 87.0196 108.228 88.1715C109.38 89.3234 110.748 90.2372 112.253 90.8606C113.758 91.484 115.371 91.8049 117 91.8049C118.629 91.8049 120.242 91.484 121.747 90.8606C123.252 90.2372 124.62 89.3234 125.772 88.1715C126.924 87.0196 127.837 85.6521 128.461 84.1471C129.084 82.642 129.405 81.0289 129.405 79.3999C129.405 77.5193 127.881 75.9949 126 75.9949C124.119 75.9949 122.595 77.5193 122.595 79.3999C122.595 80.1346 122.45 80.8622 122.169 81.541C121.888 82.2198 121.476 82.8366 120.956 83.3561C120.437 83.8757 119.82 84.2878 119.141 84.569C118.462 84.8502 117.735 84.9949 117 84.9949C116.265 84.9949 115.538 84.8502 114.859 84.569C114.18 84.2878 113.563 83.8757 113.044 83.3561C112.524 82.8366 112.112 82.2198 111.831 81.541C111.55 80.8622 111.405 80.1346 111.405 79.3999ZM95 101.4C93.8954 101.4 93 102.295 93 103.4C93 104.504 93.8954 105.4 95 105.4C96.1046 105.4 97 104.504 97 103.4C97 102.295 96.1046 101.4 95 101.4ZM89 103.4C89 100.086 91.6863 97.3999 95 97.3999C98.3137 97.3999 101 100.086 101 103.4C101 106.714 98.3137 109.4 95 109.4C91.6863 109.4 89 106.714 89 103.4Z" fill="#94A3B8"/>
</svg>
